HIERARCHY
ROOT Pelvis
{
	OFFSET 0.000000 0.000000 0.000000
	CHANNELS 6 Xposition Yposition Zposition Xrotation Yrotation Zrotation
	JOINT LeftUpLeg_virtual
	{
		OFFSET 0.000000 0.000000 0.000000
		CHANNELS 3 Xrotation Yrotation Zrotation
		JOINT LeftUpLeg
		{
			OFFSET 18.735201 -5.666702 -4.541200
			CHANNELS 3 Xrotation Yrotation Zrotation
			JOINT LeftLeg
			{
				OFFSET -0.021200 -31.938179 0.493100
				CHANNELS 3 Xrotation Yrotation Zrotation
				JOINT LeftFoot
				{
					OFFSET 0.021200 -31.938179 -4.336299
					CHANNELS 3 Xrotation Yrotation Zrotation
					JOINT LeftToeBase
					{
						OFFSET 0.943001 -26.722000 15.023500
						CHANNELS 3 Xrotation Yrotation Zrotation
						End Site
						{
							OFFSET 0 0 0
						}
					}
				}
			}
		}
	}
	JOINT RightUpLeg_virtual
	{
		OFFSET 0.000000 0.000000 0.000000
		CHANNELS 3 Xrotation Yrotation Zrotation
		JOINT RightUpLeg
		{
			OFFSET -18.735201 -5.666702 -4.541200
			CHANNELS 3 Xrotation Yrotation Zrotation
			JOINT RightLeg
			{
				OFFSET 0.018946 -31.938133 0.493100
				CHANNELS 3 Xrotation Yrotation Zrotation
				JOINT RightFoot
				{
					OFFSET -0.018946 -31.938126 -4.336299
					CHANNELS 3 Xrotation Yrotation Zrotation
					JOINT RightToeBase
					{
						OFFSET -0.943001 -26.722004 15.023500
						CHANNELS 3 Xrotation Yrotation Zrotation
						End Site
						{
							OFFSET 0 0 0
						}
					}
				}
			}
		}
	}
	JOINT Hips_virtual
	{
		OFFSET 0.000000 0.000000 0.000000
		CHANNELS 3 Xrotation Yrotation Zrotation
		JOINT Hips
		{
			OFFSET -0.000000 -0.000000 -0.000000
			CHANNELS 3 Xrotation Yrotation Zrotation
			JOINT Spine
			{
				OFFSET 0.000000 10.199997 -0.299500
				CHANNELS 3 Xrotation Yrotation Zrotation
				JOINT Spine1
				{
					OFFSET 0.000000 11.900002 -1.516600
					CHANNELS 3 Xrotation Yrotation Zrotation
					JOINT Spine2
					{
						OFFSET 0.000000 13.600006 -2.842500
						CHANNELS 3 Xrotation Yrotation Zrotation
						JOINT Neck_virtual
						{
							OFFSET 0.000000 0.000000 0.000000
							CHANNELS 3 Xrotation Yrotation Zrotation
							JOINT Neck
							{
								OFFSET 0.000000 9.624100 -2.890100
								CHANNELS 3 Xrotation Yrotation Zrotation
								JOINT Head
								{
									OFFSET 0.000000 14.068802 -1.351900
									CHANNELS 3 Xrotation Yrotation Zrotation
									End Site
									{
										OFFSET 0 0 0
									}
								}
							}
						}
						JOINT LeftShoulder_virtual
						{
							OFFSET 0.000000 0.000000 0.000000
							CHANNELS 3 Xrotation Yrotation Zrotation
							JOINT LeftShoulder
							{
								OFFSET 15.263000 10.923401 -0.547700
								CHANNELS 3 Xrotation Yrotation Zrotation
								JOINT LeftArm
								{
									OFFSET 25.438599 -2.830597 -13.032500
									CHANNELS 3 Xrotation Yrotation Zrotation
									JOINT LeftForeArm
									{
										OFFSET 29.960503 0.000000 0.000000
										CHANNELS 3 Xrotation Yrotation Zrotation
										JOINT LeftHand
										{
											OFFSET 27.849251 0.000000 0.000000
											CHANNELS 3 Xrotation Yrotation Zrotation
											End Site
											{
												OFFSET 0 0 0
											}
										}
									}
								}
							}
						}
						JOINT RightShoulder_virtual
						{
							OFFSET 0.000000 0.000000 0.000000
							CHANNELS 3 Xrotation Yrotation Zrotation
							JOINT RightShoulder
							{
								OFFSET -15.263000 10.923401 -0.547700
								CHANNELS 3 Xrotation Yrotation Zrotation
								JOINT RightArm
								{
									OFFSET -25.438599 -2.830597 -13.032500
									CHANNELS 3 Xrotation Yrotation Zrotation
									JOINT RightForeArm
									{
										OFFSET -29.960503 0.000000 0.000000
										CHANNELS 3 Xrotation Yrotation Zrotation
										JOINT RightHand
										{
											OFFSET -27.849251 0.000000 0.000000
											CHANNELS 3 Xrotation Yrotation Zrotation
											End Site
											{
												OFFSET 0 0 0
											}
										}
									}
								}
							}
						}
					}
				}
			}
		}
	}
}
MOTION
Frames: 5
Frame Time: 0.03333333
-6.107774 88.225708 43.529945 0.000000 0.000000 0.000000 4.596401 -10.825975 -6.602683 -39.803733 10.736403 11.992722 47.006748 3.896323 -1.745365 -2.424454 4.598680 -5.443192 0.000000 0.000000 0.000000 18.129482 -0.242338 -9.450980 -5.365018 -6.378067 -24.606878 79.389324 -3.517883 -2.796209 19.242424 -2.906344 3.815843 0.000000 0.000000 0.000000 32.026450 36.819733 -12.477272 -2.155182 -30.911332 -12.740337 14.653099 16.415844 -10.757638 11.675507 9.273370 -8.020850 0.000000 0.000000 0.000000 8.330380 8.993052 -5.028024 -0.443857 -0.392851 1.770876 0.000000 0.000000 0.000000 10.923863 12.968409 -7.324738 1.224257 0.035013 1.813836 14.280484 -17.890093 -42.042355 14.057579 -55.123609 8.229206 0.000000 0.000000 0.000000 13.746293 10.794797 -6.863991 4.572795 20.331501 -11.858403 7.401346 61.465760 -5.931393 3.559402 60.748645 3.817706 0.000000 0.000000 0.000000 
-6.443941 88.191833 43.746212 0.000000 0.000000 0.000000 4.517243 -9.865325 -6.736751 -39.806189 10.961123 11.904661 47.009877 3.610712 -1.626892 -2.469690 4.248643 -5.484203 0.000000 0.000000 0.000000 17.392295 0.248710 -9.175040 -6.473398 -6.048077 -24.271817 78.344257 -3.256890 -3.072611 18.677893 -2.544855 3.602817 0.000000 0.000000 0.000000 31.174609 36.144429 -12.035761 -2.742194 -30.078452 -13.605916 14.465774 15.462963 -10.569031 11.617456 8.769361 -7.928511 0.000000 0.000000 0.000000 8.331561 8.757003 -4.928028 -0.359172 -0.369011 1.767100 0.000000 0.000000 0.000000 11.089179 12.593541 -7.107276 1.251876 -0.219486 2.426719 12.036839 -17.496921 -40.280545 13.390459 -55.012625 8.443359 0.000000 0.000000 0.000000 13.823136 10.411813 -6.709343 4.711931 19.646795 -12.071396 6.198807 59.227876 -6.470915 3.216724 58.986975 3.302923 0.000000 0.000000 0.000000 
-6.715140 88.260864 44.336903 0.000000 0.000000 0.000000 4.421178 -8.934062 -6.897575 -39.813617 11.186245 11.780096 47.017444 3.281051 -1.475618 -2.513517 3.837741 -5.506884 0.000000 0.000000 0.000000 16.353496 0.638574 -8.914267 -8.025067 -5.663916 -23.993007 77.237719 -2.930664 -3.338995 18.046376 -2.120450 3.463529 0.000000 0.000000 0.000000 30.324247 35.423741 -11.569457 -2.960508 -28.913045 -14.279182 14.302291 14.453845 -10.393771 11.584167 8.224506 -7.843867 0.000000 0.000000 0.000000 8.384179 8.454122 -4.818256 -0.253061 -0.358390 1.766232 0.000000 0.000000 0.000000 11.288351 12.172905 -6.883391 1.304666 -0.402119 2.980922 9.571419 -16.774825 -38.591580 12.517182 -54.627788 8.494326 0.000000 0.000000 0.000000 13.973746 9.951939 -6.593071 4.943605 18.783613 -12.511325 5.118129 56.728092 -7.380134 2.883568 57.266328 2.683027 0.000000 0.000000 0.000000 
-6.864124 88.330017 45.185196 0.000000 0.000000 0.000000 4.323242 -7.975718 -7.089674 -39.823456 11.429521 11.624639 47.056380 2.947194 -1.309878 -2.533683 3.415521 -5.511525 0.000000 0.000000 0.000000 15.228072 0.945018 -8.661484 -9.681680 -5.285384 -23.736562 75.985062 -2.550585 -3.623964 17.270265 -1.637520 3.340302 0.000000 0.000000 0.000000 29.409196 34.561539 -10.996120 -3.043206 -27.674209 -14.637430 14.182398 13.372937 -10.242437 11.579715 7.632334 -7.773467 0.000000 0.000000 0.000000 8.471922 8.102315 -4.717820 -0.125354 -0.356483 1.756444 0.000000 0.000000 0.000000 11.476404 11.701564 -6.654242 1.360816 -0.592258 3.473199 6.884378 -15.896215 -37.031401 11.448318 -54.061593 8.357413 0.000000 0.000000 0.000000 14.154368 9.439492 -6.499379 5.208052 17.824651 -13.109343 4.060543 54.393236 -8.307271 2.551366 56.032331 2.081802 0.000000 0.000000 0.000000 
-7.073480 88.420708 45.886078 0.000000 0.000000 0.000000 4.280375 -6.815883 -7.221130 -39.661358 11.692594 11.471383 47.145743 2.633248 -1.139013 -2.510093 3.010909 -5.495630 0.000000 0.000000 0.000000 14.096677 1.206460 -8.415801 -11.320965 -4.924586 -23.486895 74.603472 -2.128400 -3.958347 16.394827 -1.092446 3.162753 0.000000 0.000000 0.000000 28.515473 33.772062 -10.469342 -3.040025 -25.893394 -15.093036 14.034593 12.215098 -10.097736 11.566386 6.987959 -7.710759 0.000000 0.000000 0.000000 8.543232 7.673613 -4.617406 -0.000727 -0.376310 1.738919 0.000000 0.000000 0.000000 11.653081 11.151815 -6.399235 1.425307 -0.940682 3.990414 4.044687 -15.285692 -35.603782 10.405815 -53.765163 8.211261 0.000000 0.000000 0.000000 14.317507 8.859388 -6.425245 5.445810 16.711677 -13.886277 2.811079 52.066426 -9.270159 2.151774 55.177659 1.487267 0.000000 0.000000 0.000000 
